<svg xmlns="http://www.w3.org/2000/svg" viewBox="0 0 337.5 75"><path d="M0 25V0h25L0 25zm50 0V0H25l25 25zm25 0V0H50l25 25zM50 50V25H25l25 25zm0 25V50H25l25 25zm37.5-25h25v25l-25-25zm25-25h-25v25l25-25zm0-25h-25v25l25-25zm25 25h-25v25l25-25zm0-25h-25v25l25-25zm25 25V0h-25l25 25zm-25 25v25h-25l25-25zm25 0v25h-25l25-25zM250 25V0h-25l25 25zm0 25V25h-25l25 25zm0 25V50h-25l25 25zm-75-25v25h25l-25-25zm0-25v25h25l-25-25zm0-25v25h25L175 0zm25 25v25h25l-25-25zm137.5 0V0h-25l25 25zm-50 0V0h25l-25 25zm-25 0V0h25l-25 25zm25 25V25h25l-25 25zm0 25V50h25l-25 25z" fill="#fff"/></svg>