<?xml version="1.0" encoding="UTF-8" standalone="no"?>
<!-- Created with Inkscape (http://www.inkscape.org/) -->

<svg
   xmlns:dc="http://purl.org/dc/elements/1.1/"
   xmlns:cc="http://creativecommons.org/ns#"
   xmlns:rdf="http://www.w3.org/1999/02/22-rdf-syntax-ns#"
   xmlns:svg="http://www.w3.org/2000/svg"
   xmlns="http://www.w3.org/2000/svg"
   xmlns:sodipodi="http://sodipodi.sourceforge.net/DTD/sodipodi-0.dtd"
   xmlns:inkscape="http://www.inkscape.org/namespaces/inkscape"
   width="337.5"
   height="75"
   viewBox="0 0 337.5 74.999997"
   id="svg3662"
   version="1.1"
   inkscape:version="0.91 r13725"
   sodipodi:docname="tent-logo.svg">
  <defs
     id="defs3664" />
  <sodipodi:namedview
     id="base"
     pagecolor="#e6e6e6"
     bordercolor="#666666"
     borderopacity="1.0"
     inkscape:pageopacity="0"
     inkscape:pageshadow="2"
     inkscape:zoom="3.959798"
     inkscape:cx="170.18624"
     inkscape:cy="30.04444"
     inkscape:document-units="px"
     inkscape:current-layer="layer1"
     showgrid="false"
     fit-margin-top="0"
     fit-margin-left="0"
     fit-margin-right="0"
     fit-margin-bottom="0"
     showborder="true"
     inkscape:showpageshadow="false"
     borderlayer="false"
     inkscape:snap-grids="true"
     units="px"
     inkscape:window-width="1920"
     inkscape:window-height="1027"
     inkscape:window-x="-8"
     inkscape:window-y="-8"
     inkscape:window-maximized="1" />
  <metadata
     id="metadata3667">
    <rdf:RDF>
      <cc:Work
         rdf:about="">
        <dc:format>image/svg+xml</dc:format>
        <dc:type
           rdf:resource="http://purl.org/dc/dcmitype/StillImage" />
        <dc:title></dc:title>
      </cc:Work>
    </rdf:RDF>
  </metadata>
  <g
     inkscape:label="Layer 1"
     inkscape:groupmode="layer"
     id="layer1"
     transform="translate(-202.67857,-352.00506)">
    <path
       inkscape:connector-curvature="0"
       id="path3376"
       style="fill:#ffffff;fill-opacity:1;fill-rule:nonzero;stroke:none"
       d="m 202.67857,377.00506 0,-25 25,0 -25,25 z" />
    <path
       inkscape:connector-curvature="0"
       id="path3380"
       style="fill:#ffffff;fill-opacity:1;fill-rule:nonzero;stroke:none"
       d="m 252.67857,377.00506 0,-25 -25,0 25,25 z" />
    <path
       inkscape:connector-curvature="0"
       id="path3384"
       style="fill:#ffffff;fill-opacity:1;fill-rule:nonzero;stroke:none"
       d="m 277.67857,377.00506 0,-25 -25,0 25,25 z" />
    <path
       inkscape:connector-curvature="0"
       id="path3388"
       style="fill:#ffffff;fill-opacity:1;fill-rule:nonzero;stroke:none"
       d="m 252.67857,402.00506 0,-25 -25,0 25,25 z" />
    <path
       inkscape:connector-curvature="0"
       id="path3392"
       style="fill:#ffffff;fill-opacity:1;fill-rule:nonzero;stroke:none"
       d="m 252.67857,427.00506 0,-24.9925 -25,0 25,24.9925 z" />
    <path
       inkscape:connector-curvature="0"
       id="path3396"
       style="fill:#ffffff;fill-opacity:1;fill-rule:nonzero;stroke:none"
       d="m 290.17857,402.01006 25,0 0,24.995 -25,-24.995 z" />
    <path
       inkscape:connector-curvature="0"
       id="path3400"
       style="fill:#ffffff;fill-opacity:1;fill-rule:nonzero;stroke:none"
       d="m 315.17857,377.00506 -25,0 0,25 25,-25 z" />
    <path
       inkscape:connector-curvature="0"
       id="path3404"
       style="fill:#ffffff;fill-opacity:1;fill-rule:nonzero;stroke:none"
       d="m 315.17857,352.00506 -25,0 0,25 25,-25 z" />
    <path
       inkscape:connector-curvature="0"
       id="path3408"
       style="fill:#ffffff;fill-opacity:1;fill-rule:nonzero;stroke:none"
       d="m 340.17857,377.00506 -25,0 0,25 25,-25 z" />
    <path
       inkscape:connector-curvature="0"
       id="path3412"
       style="fill:#ffffff;fill-opacity:1;fill-rule:nonzero;stroke:none"
       d="m 340.17857,352.00506 -25,0 0,25 25,-25 z" />
    <path
       inkscape:connector-curvature="0"
       id="path3416"
       style="fill:#ffffff;fill-opacity:1;fill-rule:nonzero;stroke:none"
       d="m 365.17857,377.00506 0,-25 -25,0 25,25 z" />
    <path
       inkscape:connector-curvature="0"
       id="path3420"
       style="fill:#ffffff;fill-opacity:1;fill-rule:nonzero;stroke:none"
       d="m 340.17857,402.00506 0,25 -25,0 25,-25 z" />
    <path
       inkscape:connector-curvature="0"
       id="path3424"
       style="fill:#ffffff;fill-opacity:1;fill-rule:nonzero;stroke:none"
       d="m 365.17857,402.01256 0,24.9925 -25,0 25,-24.9925 z" />
    <path
       inkscape:connector-curvature="0"
       id="path3428"
       style="fill:#ffffff;fill-opacity:1;fill-rule:nonzero;stroke:none"
       d="m 452.67856,377.00506 0,-25 -25,0 25,25 z" />
    <path
       inkscape:connector-curvature="0"
       id="path3432"
       style="fill:#ffffff;fill-opacity:1;fill-rule:nonzero;stroke:none"
       d="m 452.67856,402.00506 0,-25 -25,0 25,25 z" />
    <path
       inkscape:connector-curvature="0"
       id="path3436"
       style="fill:#ffffff;fill-opacity:1;fill-rule:nonzero;stroke:none"
       d="m 452.67856,427.00506 0,-25 -25,0 25,25 z" />
    <path
       inkscape:connector-curvature="0"
       id="path3440"
       style="fill:#ffffff;fill-opacity:1;fill-rule:nonzero;stroke:none"
       d="m 377.67857,402.00506 0,25 25,0 -25,-25 z" />
    <path
       inkscape:connector-curvature="0"
       id="path3444"
       style="fill:#ffffff;fill-opacity:1;fill-rule:nonzero;stroke:none"
       d="m 377.67857,377.00506 0,25 25,0 -25,-25 z" />
    <path
       inkscape:connector-curvature="0"
       id="path3448"
       style="fill:#ffffff;fill-opacity:1;fill-rule:nonzero;stroke:none"
       d="m 377.67857,352.00506 0,25 25,0 -25,-25 z" />
    <path
       inkscape:connector-curvature="0"
       id="path3452"
       style="fill:#ffffff;fill-opacity:1;fill-rule:nonzero;stroke:none"
       d="m 402.67857,377.00506 0,25 25,0 -25,-25 z" />
    <path
       inkscape:connector-curvature="0"
       id="path3456"
       style="fill:#ffffff;fill-opacity:1;fill-rule:nonzero;stroke:none"
       d="m 540.17857,377.00506 0,-25 -25,0 25,25 z" />
    <path
       inkscape:connector-curvature="0"
       id="path3460"
       style="fill:#ffffff;fill-opacity:1;fill-rule:nonzero;stroke:none"
       d="m 490.17857,377.00506 0,-25 25,0 -25,25 z" />
    <path
       inkscape:connector-curvature="0"
       id="path3464"
       style="fill:#ffffff;fill-opacity:1;fill-rule:nonzero;stroke:none"
       d="m 465.17857,377.00506 0,-25 25,0 -25,25 z" />
    <path
       inkscape:connector-curvature="0"
       id="path3468"
       style="fill:#ffffff;fill-opacity:1;fill-rule:nonzero;stroke:none"
       d="m 490.17857,402.00506 0,-25 25,0 -25,25 z" />
    <path
       inkscape:connector-curvature="0"
       id="path3472"
       style="fill:#ffffff;fill-opacity:1;fill-rule:nonzero;stroke:none"
       d="m 490.17857,427.00506 0,-25 25,0 -25,25 z" />
  </g>
</svg>
