<svg xmlns="http://www.w3.org/2000/svg" width="50" height="50">
  <path fill="none" d="M0 0h50v50H0z" clip-rule="evenodd"/>
  <path fill="white" fill-rule="evenodd" d="M38.937 20.23c0-.333-.016-.65-.03-.984 1.415-1.037 2.626-2.35 3.593-3.852-1.283.577-2.668.968-4.125 1.127 1.485-.906 2.625-2.365 3.158-4.11-1.385.836-2.928 1.44-4.56 1.745-1.31-1.484-3.173-2.438-5.235-2.466-3.965-.057-7.183 3.29-7.183 7.49 0 .59.054 1.166.184 1.727-5.976-.388-11.267-3.49-14.8-8.176-.62 1.12-.984 2.436-.984 3.835 0 2.667 1.27 5.035 3.203 6.42-1.183-.06-2.294-.406-3.26-.998v.103c0 3.72 2.48 6.82 5.77 7.56-.606.17-1.24.26-1.89.26-.478-.015-.923-.06-1.356-.16.91 3.06 3.563 5.28 6.707 5.354-2.466 2.034-5.55 3.26-8.915 3.246-.575 0-1.152-.043-1.716-.115 3.174 2.193 6.952 3.463 11.01 3.463 13.197 0 20.426-11.498 20.426-21.47zm0 0" clip-rule="evenodd"/>
</svg>
