<svg xmlns="http://www.w3.org/2000/svg" width="50" height="50">
  <path fill="none" fill-rule="evenodd" d="M0 1h50v50H0z" clip-rule="evenodd"/>
  <path fill="white" d="M25 10.653c4.673 0 5.227.018 7.072.102 1.706.078 2.633.363 3.25.603.816.318 1.4.697 2.01 1.31.614.612.993 1.195 1.31 2.012.24.617.526 1.544.604 3.25.084 1.845.103 2.398.103 7.07 0 4.673-.02 5.227-.105 7.072-.077 1.706-.362 2.633-.603 3.25-.317.816-.696 1.4-1.31 2.012-.61.612-1.194.99-2.012 1.31-.615.24-1.542.524-3.248.602-1.846.084-2.398.103-7.072.103-4.673 0-5.226-.02-7.07-.105-1.707-.077-2.634-.362-3.25-.603-.817-.317-1.4-.696-2.013-1.31s-.99-1.194-1.31-2.012c-.238-.615-.523-1.542-.602-3.248-.085-1.846-.103-2.4-.103-7.07 0-4.674.018-5.228.103-7.072.078-1.706.363-2.633.603-3.25.317-.816.696-1.4 1.31-2.012s1.194-.99 2.012-1.31c.616-.24 1.543-.524 3.25-.603 1.844-.084 2.398-.102 7.07-.102M25 7.5c-4.752 0-5.35.02-7.215.105-1.863.085-3.135.38-4.248.813-1.15.447-2.127 1.045-3.1 2.02-.973.972-1.57 1.948-2.02 3.1-.432 1.112-.728 2.384-.812 4.247C7.52 19.65 7.5 20.247 7.5 25c0 4.752.02 5.35.105 7.215.085 1.862.38 3.135.813 4.248.447 1.15 1.046 2.127 2.02 3.1s1.948 1.57 3.1 2.02c1.112.432 2.384.727 4.247.812 1.866.084 2.463.105 7.215.105 4.753 0 5.35-.02 7.216-.105 1.862-.086 3.135-.38 4.247-.813 1.15-.447 2.128-1.046 3.1-2.02s1.57-1.948 2.02-3.1c.433-1.112.728-2.385.813-4.247.084-1.866.104-2.463.104-7.215 0-4.753-.02-5.35-.105-7.215-.086-1.863-.38-3.135-.814-4.248-.445-1.15-1.043-2.127-2.016-3.1-.973-.974-1.95-1.57-3.1-2.02-1.113-.432-2.386-.728-4.248-.812C30.35 7.52 29.752 7.5 25 7.5"/>
  <path fill="white" d="M25 16.014c-4.963 0-8.986 4.023-8.986 8.986s4.023 8.986 8.986 8.986c4.964 0 8.986-4.023 8.986-8.986S29.963 16.014 25 16.014m0 14.82c-3.222 0-5.833-2.612-5.833-5.834s2.61-5.833 5.833-5.833 5.834 2.61 5.834 5.833S28.22 30.833 25 30.833m11.442-15.175c0 1.16-.94 2.1-2.1 2.1s-2.1-.94-2.1-2.1c0-1.16.938-2.1 2.1-2.1s2.1.94 2.1 2.1"/>
</svg>
